<svg width="750" height="596" viewBox="0 0 750 596" fill="none" xmlns="http://www.w3.org/2000/svg">
<mask id="mask0_25_458" style="mask-type:luminance" maskUnits="userSpaceOnUse" x="0" y="0" width="750" height="596">
<path d="M0 595.41V374.76V315.29V280.12V235.73V0C56.95 10.11 110.03 22.45 158.6 52.66C204.62 81.27 242.79 118.88 284.41 152.33C310.56 173.36 342.27 185.32 374.99 186.53C449.84 186.53 503.45 118 554.56 76.94C611.27 31.39 677.2 13.25 750 0C750 0 750 111.96 750 235.73V374.76C750 492.39 750 595.41 750 595.41C677.21 582.16 611.27 564.02 554.58 518.49C503.46 477.43 449.84 408.89 375 408.89C342.27 410.09 310.58 422.07 284.42 443.09C242.79 476.54 204.62 514.16 158.62 542.77C110.03 572.96 56.95 585.28 0 595.41Z" fill="white"/>
</mask>
<g mask="url(#mask0_25_458)">
<path d="M750 -0.0200195V595.38H0.0999756V-0.0200195H750Z" fill="#3471FF"/>
</g>
</svg>
